<svg width="19" height="19" viewBox="0 0 19 19" fill="none" xmlns="http://www.w3.org/2000/svg">
<path d="M7.16105 17H12.839C14.2065 16.9961 15.5169 16.4681 16.4839 15.5312C17.4509 14.5944 17.996 13.3249 18 12H2C2.00404 13.3249 2.54907 14.5944 3.51608 15.5312C4.48309 16.4681 5.7935 16.9961 7.16105 17Z" fill="#1E2832"/>
<path d="M0.785879 10H18.2141C18.4225 10 18.6224 10.1054 18.7698 10.2929C18.9172 10.4804 19 10.7348 19 11C19 11.2652 18.9172 11.5196 18.7698 11.7071C18.6224 11.8946 18.4225 12 18.2141 12H0.785879C0.577451 12 0.377559 11.8946 0.230179 11.7071C0.0827977 11.5196 0 11.2652 0 11H0C0 10.7348 0.0827977 10.4804 0.230179 10.2929C0.377559 10.1054 0.577451 10 0.785879 10Z" fill="#1E2832"/>
<path d="M6.00061 16H5.99939C5.44744 16 5 16.3445 5 16.7694V18.2306C5 18.6555 5.44744 19 5.99939 19H6.00061C6.55256 19 7 18.6555 7 18.2306V16.7694C7 16.3445 6.55256 16 6.00061 16Z" fill="#1E2832"/>
<path d="M12.9994 19H13.0006C13.5526 19 14 18.6555 14 18.2306V16.7694C14 16.3445 13.5526 16 13.0006 16H12.9994C12.4474 16 12 16.3445 12 16.7694V18.2306C12 18.6555 12.4474 19 12.9994 19Z" fill="#1E2832"/>
<path d="M14.7547 5C14.7994 4.99993 14.8431 4.98735 14.8813 4.96358C14.9195 4.9398 14.9507 4.90573 14.9716 4.86506C14.9924 4.82439 15.0021 4.77863 14.9996 4.73271C14.9971 4.68679 14.9825 4.64242 14.9574 4.60441C14.6279 4.10971 14.1864 3.70515 13.6711 3.42561C13.1559 3.14607 12.5823 3 12 3C11.4177 3 10.8441 3.14607 10.3289 3.42561C9.8136 3.70515 9.37211 4.10971 9.04257 4.60441C9.01746 4.64242 9.00288 4.68679 9.00038 4.73271C8.99789 4.77863 9.00759 4.82439 9.02844 4.86506C9.04928 4.90573 9.08048 4.9398 9.11869 4.96358C9.1569 4.98735 9.20068 4.99993 9.24532 5H14.7547Z" fill="#1E2832"/>
<path d="M18 11H16.773V3.36829C16.773 2.84035 16.5862 2.33401 16.2537 1.9607C15.9212 1.58738 15.4702 1.37765 15 1.37765C14.5298 1.37765 14.0788 1.58738 13.7463 1.9607C13.4138 2.33401 13.227 2.84035 13.227 3.36829H12C12 2.92596 12.0776 2.48795 12.2284 2.07929C12.3791 1.67063 12.6001 1.29933 12.8787 0.986553C13.1573 0.673779 13.488 0.425664 13.8519 0.256393C14.2159 0.0871208 14.606 0 15 0C15.394 0 15.7841 0.0871208 16.1481 0.256393C16.512 0.425664 16.8427 0.673779 17.1213 0.986553C17.3999 1.29933 17.6208 1.67063 17.7716 2.07929C17.9223 2.48795 18 2.92596 18 3.36829V11Z" fill="#1E2832"/>
<path d="M11 5H10V6H11V5Z" fill="#1E2832"/>
<path d="M11 7H10V8H11V7Z" fill="#1E2832"/>
<path d="M11 8H10V9H11V8Z" fill="#1E2832"/>
<path d="M13 5H12V6H13V5Z" fill="#1E2832"/>
<path d="M13 7H12V8H13V7Z" fill="#1E2832"/>
<path d="M13 8H12V9H13V8Z" fill="#1E2832"/>
<path d="M15 5H14V6H15V5Z" fill="#1E2832"/>
<path d="M15 7H14V8H15V7Z" fill="#1E2832"/>
<path d="M15 8H14V9H15V8Z" fill="#1E2832"/>
</svg>
