<svg width="22" height="20" viewBox="0 0 22 20" fill="none" xmlns="http://www.w3.org/2000/svg">
<path d="M21.918 18.3252L17.4984 8.10645C17.4167 7.91774 17.2783 7.7564 17.1005 7.64288C16.9227 7.52935 16.7137 7.46875 16.4998 7.46875C16.2859 7.46875 16.0768 7.52935 15.899 7.64288C15.7213 7.7564 15.5828 7.91774 15.5012 8.10645L11.0815 18.3252C11.0266 18.4505 10.9981 18.585 10.9977 18.7208C10.9974 18.8567 11.0252 18.9913 11.0794 19.1168C11.1337 19.2424 11.2135 19.3565 11.3141 19.4526C11.4148 19.5486 11.5343 19.6248 11.6658 19.6766C11.7974 19.7285 11.9384 19.755 12.0807 19.7547C12.223 19.7543 12.3639 19.7272 12.4952 19.6747C12.6265 19.6223 12.7456 19.5456 12.8457 19.4491C12.9459 19.3525 13.0251 19.2381 13.0787 19.1122L13.9789 17.0315H19.0207L19.9208 19.1122C20.0024 19.301 20.1409 19.4625 20.3187 19.576C20.4966 19.6896 20.7057 19.7502 20.9197 19.7502C21.0972 19.7501 21.272 19.7082 21.4285 19.6283C21.585 19.5484 21.7185 19.4329 21.8172 19.292C21.9159 19.1511 21.9766 18.9892 21.9941 18.8206C22.0116 18.652 21.9853 18.4818 21.9175 18.3252H21.918ZM14.8711 14.969L16.5 11.2025L18.1289 14.969H14.8711Z" fill="#F6F6F6"/>
<path d="M11.5814 14.0744C11.7493 13.8531 11.8183 13.5772 11.7732 13.3074C11.7282 13.0376 11.5729 12.7959 11.3413 12.6353C11.3315 12.6283 10.6047 12.1136 9.54938 11.0073C11.4965 8.49109 12.5994 5.62844 13.0492 4.28125H14.6339C14.9205 4.28125 15.1952 4.1726 15.3979 3.9792C15.6005 3.78581 15.7143 3.5235 15.7143 3.25C15.7143 2.9765 15.6005 2.71419 15.3979 2.5208C15.1952 2.3274 14.9205 2.21875 14.6339 2.21875H8.9375V1.28125C8.9375 1.00775 8.82368 0.745443 8.62107 0.552046C8.41846 0.358649 8.14367 0.25 7.85714 0.25C7.57061 0.25 7.29582 0.358649 7.09321 0.552046C6.89061 0.745443 6.77679 1.00775 6.77679 1.28125V2.21875H1.08036C0.793829 2.21875 0.519035 2.3274 0.316429 2.5208C0.113823 2.71419 0 2.9765 0 3.25C0 3.5235 0.113823 3.78581 0.316429 3.9792C0.519035 4.1726 0.793829 4.28125 1.08036 4.28125H10.7667C10.2992 5.54453 9.43839 7.53906 8.12527 9.36063C6.58281 7.40688 6.00973 6.14266 6.00531 6.13234C5.89239 5.88324 5.68114 5.68668 5.41738 5.58529C5.15362 5.4839 4.85862 5.48585 4.59636 5.59072C4.3341 5.6956 4.12573 5.89494 4.01643 6.14551C3.90714 6.39608 3.90574 6.67767 4.01254 6.92922C4.04103 6.99391 4.72705 8.53375 6.60835 10.8634C6.65353 10.9192 6.69821 10.9736 6.7429 11.028C4.81594 13.1069 2.92531 14.3964 2.1342 14.8127C1.88264 14.9436 1.69589 15.1646 1.61503 15.427C1.53417 15.6894 1.56583 15.9718 1.70304 16.2119C1.84024 16.452 2.07176 16.6303 2.34666 16.7074C2.62156 16.7846 2.91732 16.7544 3.16888 16.6234C3.27496 16.5681 5.55549 15.363 8.15964 12.6114C9.26554 13.7402 10.0257 14.2727 10.0714 14.3036C10.1863 14.3833 10.3165 14.4405 10.4546 14.4721C10.5928 14.5037 10.736 14.509 10.8763 14.4876C11.0166 14.4663 11.151 14.4188 11.272 14.3478C11.393 14.2768 11.4982 14.1837 11.5814 14.0739V14.0744Z" fill="#F6F6F6"/>
</svg>
