<svg width="198" height="184" viewBox="0 0 198 184" fill="none" xmlns="http://www.w3.org/2000/svg">
<path d="M38.2155 -41.1999H82.716L122.532 106.387L159.268 -41.1999H204.785V-31.7108H193.691C189.778 -31.7108 187.128 -30.9342 185.771 -29.3388C184.415 -27.7434 183.738 -24.9384 183.738 -20.9704V126.949C183.738 129.926 184.57 132.169 186.173 133.809C187.806 135.405 190.61 136.179 194.586 136.179H204.786V145.669H143.734V136.179H155.138C158.374 136.179 160.777 135.317 162.349 133.593C163.956 131.763 164.795 129.383 164.692 126.949V-31.7108L120.527 145.669H114.395L66.9068 -30.9779V104.879C66.9068 112.938 67.6364 118.972 69.0956 122.982C70.5121 126.994 72.5775 130.055 75.2593 132.212C77.9411 134.368 82.3777 135.706 88.5712 136.179V145.669H38.2148V136.179C46.4446 135.448 52.0529 132.945 55.0107 128.719C57.9393 124.533 59.4082 117.089 59.4175 106.387V-22.4811C59.4175 -25.7163 58.7408 -28.0453 57.3534 -29.513C55.9661 -30.9807 53.3772 -31.7121 49.5882 -31.7121H38.2176L38.2155 -41.1999Z" fill="#F3F5F8" fill-opacity="0.1"/>
<path d="M243 184H0V-79H243V184ZM13.1732 170.815H229.827V-65.8148H13.1732V170.815Z" fill="#F3F5F8" fill-opacity="0.1"/>
</svg>
