<svg width="215" height="49" viewBox="0 0 215 49" fill="none" xmlns="http://www.w3.org/2000/svg">
<path d="M7.14612 7.04199H15.4677L22.9132 34.5394L29.7825 7.04199H38.2942V8.81091H36.2196C35.4879 8.81091 34.9923 8.95562 34.7386 9.25278C34.4849 9.54995 34.3584 10.0726 34.3584 10.8119V38.3704C34.3446 38.603 34.3778 38.8359 34.456 39.0555C34.5342 39.275 34.6559 39.4766 34.8137 39.6484C35.1199 39.9453 35.6434 40.09 36.3868 40.09H38.2949V41.858H26.878V40.09H29.0106C29.616 40.09 30.0654 39.9294 30.3589 39.6082C30.6594 39.2673 30.8164 38.8239 30.7971 38.3704V8.81091L22.5387 41.858H21.3919L12.5111 8.94622V34.2584C12.5111 35.7599 12.6476 36.8841 12.9205 37.6311C13.1348 38.3011 13.5343 38.8972 14.0731 39.3507C14.5742 39.7527 15.4043 40.0019 16.5626 40.09V41.858H7.14612V40.09C8.68506 39.9538 9.7338 39.4874 10.2869 38.7C10.8345 37.9201 11.1093 36.5331 11.1114 34.5392V10.5307C11.1114 9.92793 10.9849 9.49404 10.7255 9.2206C10.4662 8.94716 9.98209 8.81091 9.27328 8.81091H7.14682V7.04199H7.14612Z" fill="#F6F6F6"/>
<path d="M45.4405 48.9997H0V-0.000976562H45.4405V48.9997ZM2.46331 46.5432H42.977V2.45648H2.46331V46.5432Z" fill="#F6F6F6"/>
<path d="M60.0691 3.16992H69.8922L78.7023 26.4031L86.8057 3.16992H96.8644V4.67339H94.4145C93.5664 4.67339 92.9775 4.79084 92.6713 5.02576C92.3651 5.26068 92.2237 5.73051 92.2237 6.36478V29.645C92.2168 29.8558 92.2627 30.0651 92.3573 30.2537C92.4519 30.4424 92.5922 30.6046 92.7655 30.7256C93.1189 30.984 93.7313 31.1015 94.6265 31.1015H96.8644V32.6049H83.39V31.1015H85.9106C86.6173 31.1015 87.1591 30.984 87.4889 30.7021C87.6544 30.5807 87.7881 30.4212 87.8783 30.2371C87.9686 30.053 88.0128 29.8498 88.0071 29.645V4.67339L78.2547 32.6049H76.8884L66.4058 4.76735V26.1682C66.4058 27.4368 66.5707 28.3999 66.8769 29.0342C67.1833 29.64 67.6575 30.1455 68.2432 30.4907C68.8321 30.8196 69.8215 31.031 71.1878 31.1015V32.6049H60.0691V31.1015C61.8829 30.984 63.1079 30.6081 63.7675 29.9269C64.427 29.2456 64.7568 28.0945 64.7568 26.4031V6.10637C64.7717 5.89827 64.7368 5.68961 64.6549 5.49763C64.5729 5.30566 64.4464 5.13586 64.2857 5.00227C63.9795 4.76735 63.4141 4.67339 62.5661 4.67339H60.0691V3.16992Z" fill="#F6F6F6"/>
<path d="M160.82 3.16992H174.318V4.67339H171.444C170.832 4.67339 170.361 4.81433 170.031 5.14322C169.861 5.29603 169.728 5.48544 169.642 5.69709C169.557 5.90874 169.52 6.13708 169.536 6.36478V20.0134L180.631 8.17364C181.267 7.49238 181.597 6.83462 181.597 6.22383C181.597 5.99441 181.537 5.76903 181.421 5.57085C181.305 5.37268 181.138 5.20886 180.938 5.09624C180.49 4.81434 179.783 4.67339 178.77 4.67339H177.969V3.16992H190.077V4.67339H189.135C188.206 4.70536 187.296 4.94627 186.473 5.37813C185.458 5.87736 184.541 6.5536 183.764 7.37492L176.933 14.4694L186.732 28.8698C187.274 29.692 187.84 30.2793 188.429 30.6081C189.065 30.9499 189.779 31.12 190.502 31.1015H191.585V32.6049H178.276V31.1015H179.783C180.89 31.1015 181.621 31.031 181.974 30.8431C182.327 30.6551 182.539 30.4202 182.539 30.1383C182.53 29.8711 182.449 29.6113 182.304 29.3866L174.153 17.4293L169.536 22.3861V29.645C169.519 29.8272 169.544 30.0109 169.61 30.1819C169.675 30.353 169.779 30.5068 169.913 30.6316C170.357 30.9533 170.896 31.1186 171.444 31.1015H174.318V32.6049H160.82V31.1015H163.412C164.095 31.1015 164.566 30.984 164.896 30.7021C165.05 30.5734 165.172 30.4112 165.254 30.228C165.336 30.0447 165.374 29.8453 165.367 29.645V6.12987C165.378 5.91836 165.334 5.70754 165.239 5.51809C165.144 5.32864 165.001 5.16707 164.825 5.04925C164.472 4.79084 163.859 4.67339 163.011 4.67339H160.82V3.16992Z" fill="#F6F6F6"/>
<path d="M209.841 5.40148L211.655 2.81741H213.092L213.234 13.5531H211.914C211.098 10.2643 209.873 7.8681 208.24 6.36464C207.51 5.63691 206.643 5.06077 205.689 4.66962C204.735 4.27847 203.712 4.08008 202.68 4.08595C200.913 4.08595 199.477 4.60277 198.346 5.65989C197.811 6.14324 197.385 6.73468 197.096 7.39489C196.808 8.05511 196.664 8.76897 196.673 9.48903C196.654 10.3613 196.874 11.2223 197.309 11.9791C197.767 12.7218 198.429 13.3172 199.217 13.694C200.065 14.1404 201.667 14.6337 203.999 15.127C207.297 15.8318 209.606 16.56 210.925 17.2882C212.145 17.9108 213.163 18.8662 213.859 20.0432C214.555 21.2203 214.902 22.5704 214.859 23.9364C214.859 26.5909 213.964 28.7991 212.174 30.5375C210.383 32.2759 208.075 33.1686 205.248 33.1686C202.322 33.2168 199.486 32.1594 197.309 30.2086L195.048 32.9572H193.611V21.5637H195.048C195.613 24.7116 196.862 27.1782 198.793 29.0106C200.725 30.8429 202.916 31.7356 205.366 31.7356C207.321 31.7356 208.946 31.1483 210.195 29.9972C210.787 29.4588 211.259 28.8018 211.58 28.0691C211.901 27.3365 212.063 26.5446 212.056 25.7452C212.074 24.8708 211.828 24.0112 211.349 23.2786C210.791 22.4907 210.024 21.8727 209.135 21.4932C208.122 20.9999 206.143 20.4126 203.175 19.7314C200.207 19.0501 197.686 18.087 196.508 17.1473C194.836 15.7848 194.011 13.8585 194.011 11.3918C194.011 8.92523 194.836 6.67003 196.485 5.02562C198.134 3.38121 200.254 2.559 202.845 2.559C204.055 2.54774 205.255 2.77114 206.379 3.21676C207.653 3.73634 208.825 4.4759 209.841 5.40148Z" fill="#F6F6F6"/>
<path d="M65.6991 44.9378C65.7152 45.171 65.6748 45.4047 65.5813 45.619C65.4871 45.76 65.4164 45.807 65.3222 45.807C65.2751 45.8017 65.2296 45.7864 65.189 45.7621C65.1483 45.7378 65.1134 45.705 65.0866 45.666C64.9531 45.4257 64.8653 45.1629 64.8275 44.8908C64.7618 44.5413 64.651 44.2017 64.4977 43.8806C64.4124 43.7156 64.2918 43.5713 64.1444 43.4578C63.8744 43.318 63.5901 43.2077 63.2963 43.1289C63.716 43.1098 64.1298 43.0225 64.5213 42.8705C64.7642 42.7486 64.9681 42.5615 65.1102 42.3302C65.2537 42.1147 65.3276 41.8606 65.3222 41.602C65.3315 41.3865 65.2893 41.172 65.1992 40.9759C65.1091 40.7799 64.9736 40.608 64.804 40.4744C64.3798 40.1712 63.8644 40.022 63.3434 40.0515H60.0927V40.3804H60.7051C60.8119 40.3732 60.9185 40.3977 61.0114 40.4509C61.0708 40.5148 61.1044 40.5986 61.1056 40.6858V45.6895C61.1044 45.7767 61.0708 45.8604 61.0114 45.9244C60.9185 45.9776 60.8119 46.0021 60.7051 45.9949H60.0927V46.3238H63.0137V45.9949H62.4012C62.2944 46.0021 62.1878 45.9776 62.095 45.9244C62.0604 45.8966 62.0335 45.8604 62.017 45.8193C62.0005 45.7781 61.9949 45.7334 62.0007 45.6895V43.2464H62.519C62.7623 43.2384 63.0042 43.2866 63.2257 43.3873C63.4024 43.4662 63.5504 43.5974 63.6497 43.7632C63.7696 44.014 63.8415 44.2848 63.8617 44.5619C63.893 44.9656 63.956 45.3661 64.0501 45.76C64.1114 45.9519 64.2359 46.1174 64.4035 46.2298C64.5569 46.333 64.7368 46.3901 64.9217 46.3943C65.5813 46.3943 65.9347 45.9009 66.0053 44.9378H65.6991ZM62.7545 42.941H62.0007V40.6858C61.9979 40.6364 62.0072 40.5871 62.0277 40.5421C62.0482 40.4971 62.0794 40.4577 62.1185 40.4274C62.324 40.3633 62.54 40.3394 62.7545 40.3569C63.0964 40.3389 63.4389 40.3786 63.7675 40.4744C63.9458 40.562 64.0936 40.7011 64.1915 40.8737C64.2967 41.1182 64.345 41.3832 64.3328 41.6489C64.3328 42.1188 64.1915 42.4712 63.9088 42.6591C63.5604 42.8647 63.1588 42.9628 62.7545 42.941Z" fill="#F6F6F6"/>
<path d="M75.6163 40.0518H80.5868L80.7045 42.166H80.4219C80.3041 41.5082 80.1392 41.0384 79.8801 40.78C79.7633 40.647 79.6179 40.542 79.4547 40.4729C79.2916 40.4037 79.1149 40.3722 78.9378 40.3806H77.6893C77.651 40.3774 77.6125 40.382 77.576 40.3941C77.5396 40.4062 77.506 40.4256 77.4773 40.4511C77.4178 40.5151 77.3842 40.5988 77.3831 40.686V42.9177H77.9249C78.0587 42.928 78.193 42.9056 78.3162 42.8524C78.4393 42.7992 78.5476 42.7168 78.6316 42.6123C78.8421 42.3452 78.9507 42.0122 78.9378 41.6727H79.2205V44.5621H78.9378C78.9142 44.0923 78.82 43.7399 78.6316 43.552C78.539 43.4439 78.4231 43.3581 78.2926 43.3012C78.162 43.2442 78.0202 43.2175 77.8778 43.2231H77.3831V45.7132C77.3855 45.7933 77.4193 45.8692 77.4773 45.9247C77.5701 45.9778 77.6767 46.0023 77.7835 45.9951H78.7729C79.8094 45.9951 80.4219 45.3374 80.5868 43.9749H80.893L80.7988 46.324H75.6163V45.9951H76.0404C76.1624 46.0048 76.2848 45.9804 76.3937 45.9247C76.4272 45.8909 76.4529 45.8504 76.4692 45.8057C76.4855 45.7611 76.4918 45.7136 76.4879 45.6663V40.686C76.4917 40.6423 76.4851 40.5982 76.4687 40.5574C76.4524 40.5167 76.4267 40.4802 76.3937 40.4511C76.3189 40.3967 76.2267 40.3716 76.1346 40.3806H75.6163V40.0518Z" fill="#F6F6F6"/>
<path d="M96.4639 45.9955C96.3471 46.0059 96.23 45.9798 96.1287 45.9209C96.0274 45.862 95.947 45.7731 95.8986 45.6666L93.6607 39.9111H93.378L91.2344 45.2437C91.1563 45.4719 91.018 45.6748 90.8339 45.831C90.6712 45.9514 90.4707 46.0098 90.2686 45.9955V46.3243H92.5535V45.9955H92.3415C92.1426 46.0127 91.9436 45.9631 91.7762 45.8545C91.7137 45.8186 91.6615 45.7674 91.6244 45.7057C91.5873 45.6441 91.5665 45.574 91.5642 45.5021C91.5797 45.3329 91.6193 45.1668 91.6819 45.0088L91.9882 44.2571H94.4616L94.9799 45.5726C95.0035 45.6248 95.0194 45.6802 95.027 45.7371C95.0244 45.7756 95.0122 45.813 94.9917 45.8457C94.9712 45.8785 94.9428 45.9057 94.9092 45.925C94.7263 45.981 94.535 46.0049 94.3438 45.9955H94.1554V46.3243H96.6524V45.9955H96.4639ZM92.1295 43.9282L93.2367 41.1327L94.3438 43.9282H92.1295Z" fill="#F6F6F6"/>
<path d="M105.981 40.0518H108.902V40.3806H108.195C108.153 40.3755 108.11 40.3791 108.07 40.3913C108.029 40.4034 107.992 40.4238 107.959 40.4511C107.925 40.4892 107.899 40.5339 107.883 40.5824C107.867 40.6309 107.861 40.6821 107.865 40.733V45.6663C107.862 45.7156 107.872 45.7649 107.892 45.8099C107.913 45.8549 107.944 45.8943 107.983 45.9247C108.106 45.9881 108.246 46.0127 108.383 45.9951H109.255C109.47 46.005 109.685 45.9681 109.884 45.887C110.083 45.8058 110.263 45.6824 110.409 45.5253C110.716 45.2199 110.928 44.6796 111.069 43.9044H111.352L111.21 46.324H105.981V45.9951H106.499C106.632 46.0092 106.765 45.9759 106.876 45.9012C106.914 45.8559 106.942 45.8033 106.958 45.7467C106.974 45.69 106.978 45.6306 106.97 45.5723V40.686C106.974 40.6423 106.967 40.5982 106.951 40.5574C106.935 40.5167 106.909 40.4802 106.876 40.4511C106.801 40.3967 106.709 40.3716 106.617 40.3806H105.981V40.0518Z" fill="#F6F6F6"/>
<path d="M128.831 40.0518H133.801L133.942 42.166H133.636C133.542 41.5082 133.353 41.0384 133.118 40.78C132.996 40.6465 132.847 40.5414 132.68 40.4724C132.513 40.4033 132.333 40.372 132.152 40.3806H130.927C130.885 40.3755 130.842 40.3791 130.802 40.3913C130.761 40.4034 130.724 40.4238 130.692 40.4511C130.641 40.5185 130.615 40.6018 130.621 40.686V42.9177H131.163C131.296 42.9225 131.428 42.8975 131.551 42.8447C131.673 42.7919 131.782 42.7125 131.869 42.6123C132.06 42.3364 132.159 42.0077 132.152 41.6727H132.435V44.5621H132.152C132.128 44.0923 132.034 43.7399 131.846 43.552C131.758 43.4444 131.646 43.3586 131.52 43.3015C131.393 43.2444 131.255 43.2176 131.116 43.2231H130.621V45.7132C130.617 45.7536 130.624 45.7943 130.64 45.8313C130.657 45.8684 130.682 45.9005 130.715 45.9247C130.807 45.9807 130.914 46.0055 131.021 45.9951H131.987C133.047 45.9951 133.66 45.3374 133.801 43.9749H134.107L134.013 46.324H128.831V45.9951H129.255C129.377 46.0048 129.499 45.9804 129.608 45.9247C129.646 45.8931 129.676 45.8535 129.696 45.8088C129.717 45.7641 129.727 45.7154 129.726 45.6663V40.686C129.725 40.5988 129.691 40.5151 129.631 40.4511C129.546 40.3999 129.448 40.3753 129.349 40.3806H128.831V40.0518Z" fill="#F6F6F6"/>
<path d="M148.854 40.5211L149.23 39.9808H149.537V42.2595H149.254C149.154 41.6843 148.883 41.1523 148.477 40.7325C148.324 40.5752 148.141 40.4504 147.938 40.3656C147.736 40.2808 147.518 40.2378 147.299 40.2392C147.13 40.2328 146.961 40.2607 146.803 40.3213C146.645 40.3819 146.501 40.4738 146.38 40.5916C146.268 40.6919 146.178 40.8151 146.117 40.9529C146.056 41.0906 146.025 41.2397 146.027 41.3903C146.027 41.5767 146.067 41.7608 146.145 41.9306C146.251 42.0905 146.397 42.22 146.569 42.3065C146.892 42.4449 147.233 42.5397 147.582 42.5884C148.086 42.684 148.577 42.8418 149.042 43.0582C149.301 43.1966 149.52 43.3988 149.678 43.6455C149.822 43.8955 149.895 44.1796 149.89 44.4677C149.898 44.7287 149.852 44.9886 149.754 45.2311C149.657 45.4736 149.511 45.6935 149.325 45.8772C149.127 46.0649 148.894 46.2114 148.64 46.3083C148.385 46.4051 148.113 46.4502 147.841 46.441C147.216 46.4487 146.61 46.2224 146.145 45.8067L145.673 46.394H145.367V43.9744H145.673C145.753 44.5747 146.035 45.1301 146.474 45.5483C146.654 45.7353 146.87 45.8838 147.109 45.9848C147.348 46.0858 147.605 46.1371 147.864 46.1356C148.053 46.1441 148.242 46.1153 148.42 46.0508C148.598 45.9863 148.761 45.8874 148.901 45.7597C149.028 45.6483 149.129 45.511 149.198 45.3569C149.268 45.2029 149.303 45.0358 149.301 44.867C149.296 44.6754 149.239 44.4886 149.136 44.3267C149.017 44.1604 148.854 44.0302 148.665 43.9509C148.253 43.7877 147.828 43.6619 147.393 43.575C146.893 43.4804 146.415 43.2974 145.98 43.0347C145.802 42.8853 145.662 42.6977 145.568 42.4861C145.474 42.2745 145.429 42.0444 145.438 41.8131C145.431 41.5635 145.476 41.3152 145.568 41.083C145.66 40.8508 145.798 40.6396 145.974 40.4619C146.15 40.2842 146.36 40.1438 146.592 40.049C146.824 39.9542 147.072 39.9071 147.322 39.9103C147.581 39.9072 147.837 39.9551 148.076 40.0513C148.349 40.1699 148.603 40.3282 148.83 40.5211" fill="#F6F6F6"/>
<path d="M161.291 40.0518H166.38L166.497 42.4244H166.215C166.026 41.0384 165.508 40.3337 164.707 40.3337C164.585 40.324 164.463 40.3484 164.354 40.4041C164.294 40.4862 164.261 40.5846 164.26 40.686V45.7132C164.262 45.7933 164.296 45.8692 164.354 45.9247C164.447 45.9778 164.553 46.0023 164.66 45.9951H165.273V46.324H162.375V45.9951H163.082C163.166 45.9969 163.248 45.9722 163.317 45.9247C163.341 45.8996 163.36 45.8701 163.372 45.8378C163.384 45.8055 163.389 45.7712 163.388 45.7367V40.6625C163.392 40.6152 163.386 40.5677 163.369 40.523C163.353 40.4784 163.327 40.4379 163.294 40.4041C163.194 40.3477 163.079 40.3231 162.964 40.3337C162.759 40.3372 162.558 40.393 162.381 40.4958C162.204 40.5986 162.056 40.745 161.951 40.9209C161.716 41.2263 161.551 41.7432 161.456 42.4244H161.15L161.291 40.0518Z" fill="#F6F6F6"/>
<path d="M183.011 45.9955C182.894 46.0059 182.777 45.9798 182.675 45.9209C182.574 45.862 182.494 45.7731 182.445 45.6666L180.184 39.9111H179.901L177.781 45.2437C177.703 45.4719 177.565 45.6748 177.381 45.831C177.218 45.9514 177.017 46.0098 176.815 45.9955V46.3243H179.077V45.9955H178.865C178.666 46.0047 178.47 45.9557 178.299 45.8545C178.243 45.8144 178.196 45.7617 178.163 45.7005C178.131 45.6394 178.113 45.5714 178.111 45.5021C178.126 45.3329 178.166 45.1668 178.229 45.0088L178.511 44.2571H181.008L181.526 45.5726C181.544 45.6256 181.552 45.6813 181.55 45.7371C181.553 45.7768 181.543 45.8164 181.522 45.8502C181.501 45.884 181.469 45.9102 181.432 45.925C181.258 45.9834 181.074 46.0073 180.89 45.9955H180.702V46.3243H183.199V45.9955H183.011ZM178.653 43.9282L179.783 41.1327L180.89 43.9282H178.653Z" fill="#F6F6F6"/>
<path d="M193.635 40.0518H198.723L198.864 42.4244H198.558C198.369 41.0384 197.875 40.3337 197.05 40.3337C196.935 40.3198 196.819 40.3446 196.72 40.4041C196.686 40.4423 196.66 40.4869 196.644 40.5354C196.628 40.5839 196.622 40.6351 196.626 40.686V45.7132C196.622 45.7536 196.629 45.7943 196.645 45.8313C196.662 45.8684 196.688 45.9005 196.72 45.9247C196.802 45.9827 196.903 46.0079 197.003 45.9951H197.639V46.324H194.718V45.9951H195.448C195.487 45.9984 195.525 45.9938 195.562 45.9817C195.598 45.9696 195.632 45.9502 195.66 45.9247C195.684 45.8996 195.703 45.8701 195.715 45.8378C195.727 45.8055 195.732 45.7712 195.731 45.7367V40.6625C195.735 40.6152 195.729 40.5677 195.712 40.523C195.696 40.4784 195.67 40.4379 195.637 40.4041C195.544 40.351 195.437 40.3265 195.331 40.3337C195.121 40.3331 194.916 40.3871 194.734 40.4901C194.552 40.5931 194.401 40.7416 194.294 40.9209C194.03 41.3842 193.862 41.8954 193.799 42.4244H193.493L193.635 40.0518Z" fill="#F6F6F6"/>
<path d="M209.7 40.0518H214.694L214.812 42.166H214.529C214.411 41.5082 214.223 41.0384 213.987 40.78C213.868 40.6438 213.719 40.5369 213.551 40.4676C213.384 40.3983 213.202 40.3686 213.022 40.3806H211.797C211.713 40.3789 211.63 40.4036 211.561 40.4511C211.51 40.5185 211.485 40.6018 211.49 40.686V42.9177H212.032C212.165 42.9225 212.298 42.8975 212.42 42.8447C212.542 42.7919 212.651 42.7125 212.739 42.6123C212.951 42.3472 213.052 42.0105 213.022 41.6727H213.328V44.5621H213.022C213.046 44.2031 212.946 43.8466 212.739 43.552C212.644 43.4465 212.528 43.3625 212.398 43.3057C212.268 43.249 212.127 43.2208 211.985 43.2231H211.49V45.7132C211.486 45.7536 211.493 45.7943 211.51 45.8313C211.526 45.8684 211.552 45.9005 211.585 45.9247C211.677 45.9778 211.784 46.0023 211.891 45.9951H212.857C213.917 45.9951 214.529 45.3374 214.694 43.9749H215L214.882 46.324H209.7V45.9951H210.148C210.27 46.0048 210.392 45.9804 210.501 45.9247C210.534 45.8909 210.56 45.8504 210.576 45.8057C210.593 45.7611 210.599 45.7136 210.595 45.6663V40.686C210.599 40.6423 210.592 40.5982 210.576 40.5574C210.56 40.5167 210.534 40.4802 210.501 40.4511C210.419 40.3931 210.318 40.3679 210.218 40.3806H209.7V40.0518Z" fill="#F6F6F6"/>
<path d="M143.176 16.7011H139.69V6.10637C139.69 5.55824 139.878 5.18237 140.255 4.97878C140.609 4.74386 141.598 4.64989 143.153 4.64989C145.556 4.64989 147.134 4.81434 147.958 5.14322C148.804 5.50833 149.496 6.15638 149.914 6.97557C150.408 7.89174 150.667 9.1133 150.667 10.6637C150.667 12.9189 150.008 14.4929 148.665 15.3856C147.322 16.2782 145.532 16.7011 143.176 16.7011ZM157.098 26.1447C157.004 27.6482 156.792 28.7288 156.439 29.3396C156.085 29.9504 155.708 30.2323 155.308 30.2323C154.907 30.2323 154.531 29.9974 154.177 29.504C153.824 29.0107 153.306 27.6717 152.905 25.9333C152.34 23.5137 151.845 21.8927 151.421 21.1175C150.997 20.3434 150.401 19.6765 149.678 19.1677C148.971 18.6744 147.652 18.1811 145.744 17.6643C148.359 17.3824 150.267 16.9595 151.492 16.3487C152.629 15.8112 153.598 14.9747 154.295 13.9291C154.943 12.8857 155.278 11.6794 155.261 10.4523C155.261 8.2676 154.436 6.50573 152.811 5.1902C151.186 3.87467 148.901 3.16992 145.932 3.16992H130.691V4.67339H133.589C134.201 4.67339 134.672 4.79084 134.979 5.02576C135.14 5.16893 135.267 5.34715 135.348 5.5467C135.43 5.74626 135.465 5.96183 135.45 6.17685V29.692C135.455 29.8863 135.418 30.0795 135.34 30.258C135.263 30.4365 135.148 30.596 135.002 30.7256C134.696 30.984 134.225 31.1015 133.589 31.1015H130.691V32.6049H144.401V31.1015H141.575C140.891 31.1015 140.397 30.984 140.067 30.7256C139.737 30.4672 139.69 30.1853 139.69 29.692V18.1341H142.093C143.388 18.1341 144.472 18.3455 145.391 18.8153C146.234 19.188 146.942 19.8116 147.417 20.6007C147.864 21.3524 148.17 22.5975 148.359 24.3594C148.712 27.3898 149.042 29.2926 149.301 29.9974C149.578 30.8678 150.134 31.6238 150.882 32.1498C151.631 32.6758 152.532 32.9429 153.447 32.9103C156.533 32.9103 158.182 30.6551 158.441 26.1447H157.098Z" fill="#F6F6F6"/>
<path d="M107.418 21.3284L112.718 8.22008L117.877 21.3284H107.418ZM127.841 31.1009C126.522 31.1009 125.65 30.5606 125.226 29.48L114.626 2.55859H113.307L103.272 27.5302C102.73 28.9162 102.117 29.8559 101.434 30.3727C100.751 30.8895 99.8796 31.1009 98.7253 31.1009V32.6044H109.42V31.1009H108.431C107.276 31.1009 106.381 30.8895 105.792 30.4197C105.203 29.9498 104.874 29.386 104.874 28.7518C104.874 28.1175 105.062 27.4362 105.415 26.4731L106.782 22.8789H118.442L120.892 29.1276C120.982 29.36 121.03 29.6067 121.033 29.8559C121.036 30.0344 120.989 30.2103 120.898 30.3637C120.806 30.5172 120.674 30.6423 120.515 30.7251C120.02 30.9835 119.149 31.1009 117.924 31.1009H116.982V32.6044H128.76V31.1009H127.841Z" fill="#F6F6F6"/>
</svg>
